<?xml version="1.0" standalone="no"?>
<!DOCTYPE svg PUBLIC "-//W3C//DTD SVG 20010904//EN"
 "http://www.w3.org/TR/2001/REC-SVG-20010904/DTD/svg10.dtd">
<svg version="1.0" xmlns="http://www.w3.org/2000/svg"
 width="558.000000pt" height="558.000000pt" viewBox="0 0 558.000000 558.000000"
 preserveAspectRatio="xMidYMid meet">
<metadata>
Created by potrace 1.14, written by Peter Selinger 2001-2017
</metadata>
<g transform="translate(0.000000,558.000000) scale(0.100000,-0.100000)"
fill="#000000" stroke="none">
<path d="M75 5570 c-11 -4 -31 -20 -45 -35 l-25 -27 0 -2719 0 -2719 33 -32
32 -33 2721 0 2721 0 34 37 34 38 0 2701 c0 2994 6 2750 -65 2783 -30 14 -294
16 -2727 15 -1481 0 -2702 -4 -2713 -9z m5140 -306 c71 -33 65 180 63 -2486
-3 -2385 -3 -2403 -23 -2430 -11 -15 -33 -32 -49 -38 -20 -7 -787 -10 -2418
-10 -2650 0 -2439 -6 -2472 65 -15 30 -16 261 -14 2437 3 2385 3 2403 23 2430
11 15 31 32 45 37 16 6 924 10 2418 10 2160 1 2397 -1 2427 -15z"/>
<path d="M753 4860 c-21 -12 -36 -32 -43 -57 -8 -27 -10 -606 -8 -2035 l3
-1998 33 -32 32 -33 838 0 c821 0 838 0 864 20 15 11 30 31 34 45 4 14 8 311
9 660 1 349 5 653 9 676 4 23 20 57 36 76 50 61 78 68 258 68 175 0 207 -7
254 -57 52 -55 51 -42 53 -748 1 -461 4 -666 12 -680 6 -11 21 -29 33 -40 20
-19 39 -20 249 -23 246 -3 268 1 303 50 21 30 21 34 21 691 l0 661 26 50 c19
36 38 56 70 73 41 21 56 23 205 23 135 0 168 -3 202 -19 42 -19 75 -57 94
-105 6 -17 10 -266 10 -683 1 -602 2 -658 18 -686 28 -49 60 -56 254 -56 202
0 228 8 248 76 8 27 10 288 8 898 l-3 860 -32 65 c-41 84 -100 143 -182 182
l-66 31 -405 1 c-223 1 -430 -2 -459 -7 -112 -16 -209 -94 -267 -212 -18 -38
-34 -62 -34 -51 0 35 -64 137 -112 181 -27 24 -75 54 -106 66 -55 21 -72 22
-462 23 -223 1 -427 -3 -455 -7 -130 -22 -233 -114 -280 -252 -16 -45 -18
-111 -19 -670 l-1 -620 -380 0 -380 0 -5 1770 c-4 1448 -7 1774 -18 1793 -25
43 -67 52 -254 52 -154 0 -177 -2 -205 -20z"/>
</g>
</svg>
