<?xml version="1.0" standalone="no"?>
<!DOCTYPE svg PUBLIC "-//W3C//DTD SVG 20010904//EN"
 "http://www.w3.org/TR/2001/REC-SVG-20010904/DTD/svg10.dtd">
<svg version="1.0" xmlns="http://www.w3.org/2000/svg"
 width="558.000000pt" height="558.000000pt" viewBox="0 0 558.000000 558.000000"
 preserveAspectRatio="xMidYMid meet">
<metadata>
Created by potrace 1.14, written by Peter Selinger 2001-2017
</metadata>
<g transform="translate(0.000000,558.000000) scale(0.100000,-0.100000)"
fill="#000000" stroke="none">
<path d="M75 5570 c-11 -4 -31 -20 -45 -35 l-25 -27 0 -2719 0 -2719 33 -32
32 -33 2720 0 2720 0 32 33 33 32 0 2720 0 2720 -33 32 -32 33 -2708 2 c-1489
1 -2716 -2 -2727 -7z m5167 -328 l33 -32 0 -2420 0 -2420 -33 -32 -32 -33
-2420 0 -2420 0 -32 33 -33 32 0 2419 0 2419 25 27 c14 15 34 31 45 35 11 5
1103 8 2427 7 l2408 -2 32 -33z"/>
<path d="M754 4861 c-17 -10 -36 -32 -42 -47 -9 -22 -12 -509 -10 -2036 l3
-2008 33 -32 32 -33 840 0 840 0 32 33 33 32 5 678 c6 756 1 711 77 769 36 28
39 28 197 31 192 4 216 0 263 -41 71 -62 67 -28 73 -774 l5 -673 28 -27 27
-28 227 -3 c236 -3 264 1 300 40 17 19 18 60 23 697 l5 676 23 40 c13 22 39
52 59 65 35 24 45 25 204 28 200 4 238 -7 286 -79 l28 -43 5 -675 c4 -523 8
-681 18 -698 26 -46 58 -53 247 -53 195 0 222 7 250 60 14 26 15 133 13 897
l-3 868 -23 57 c-29 72 -109 161 -176 196 l-51 27 -470 0 -470 0 -44 -23 c-73
-39 -138 -109 -176 -186 -19 -39 -35 -63 -35 -52 0 36 -64 138 -114 182 -98
86 -95 85 -610 82 l-451 -3 -50 -25 c-67 -33 -135 -103 -171 -175 l-29 -60 -5
-640 -5 -640 -382 -3 -383 -2 0 1765 c0 1941 4 1807 -60 1840 -23 12 -67 15
-207 15 -157 0 -182 -2 -209 -19z"/>
</g>
</svg>
