<?xml version="1.0" encoding="UTF-8"?>
<svg width="260px" height="27px" viewBox="0 0 260 27" version="1.1" xmlns="http://www.w3.org/2000/svg" xmlns:xlink="http://www.w3.org/1999/xlink">
    <title>LauraMellorUI1x</title>
    <g id="Page-1" stroke="none" stroke-width="1" fill="none" fill-rule="evenodd">
        <g id="Artboard" transform="translate(-98.000000, -48.000000)" fill="#353735" fill-rule="nonzero">
            <path d="M115.696,74.24 L116.688,66.048 L114.096,65.696 L112.08,71.68 L105.232,71.968 L105.232,52.864 L108.304,52.448 L108.304,50.464 L98.064,50.464 L98.064,52.448 L100.528,52.864 L100.528,72 L98,72.32 L98,74.24 L115.696,74.24 Z M131.6,74.592 C132.197333,74.592 132.890667,74.5386667 133.68,74.432 C134.469333,74.3253333 135.077333,74.2186667 135.504,74.112 L135.504,74.112 L135.504,72.32 L133.776,72.32 L133.776,62.528 C133.776,60.9493333 133.573333,59.6906667 133.168,58.752 C132.762667,57.8133333 132.096,57.1306667 131.168,56.704 C130.24,56.2773333 128.954667,56.064 127.312,56.064 C126.202667,56.064 125.125333,56.208 124.08,56.496 C123.034667,56.784 122.133333,57.12 121.376,57.504 C120.618667,57.888 120.08,58.2186667 119.76,58.496 L119.76,58.496 L120.752,60.544 C121.648,60.1173333 122.512,59.7706667 123.344,59.504 C124.176,59.2373333 125.114667,59.104 126.16,59.104 C127.077333,59.104 127.776,59.2266667 128.256,59.472 C128.736,59.7173333 129.066667,60.0853333 129.248,60.576 C129.429333,61.0666667 129.52,61.7493333 129.52,62.624 L129.52,62.624 L129.52,63.36 C126.426667,63.3813333 123.904,63.8826667 121.952,64.864 C120,65.8453333 119.024,67.3066667 119.024,69.248 C119.024,70.3786667 119.269333,71.344 119.76,72.144 C120.250667,72.944 120.906667,73.552 121.728,73.968 C122.549333,74.384 123.450667,74.592 124.432,74.592 C125.584,74.592 126.618667,74.336 127.536,73.824 C128.453333,73.312 129.2,72.736 129.776,72.096 L129.776,72.096 L129.776,72.96 C129.776,73.6213333 129.898667,74.0586667 130.144,74.272 C130.389333,74.4853333 130.874667,74.592 131.6,74.592 Z M126.48,71.936 C125.648,71.936 124.992,71.6693333 124.512,71.136 C124.032,70.6026667 123.792,69.824 123.792,68.8 C123.792,67.776 124.266667,66.9386667 125.216,66.288 C126.165333,65.6373333 127.6,65.312 129.52,65.312 L129.52,65.312 L129.52,70.56 C129.093333,70.944 128.592,71.2693333 128.016,71.536 C127.44,71.8026667 126.928,71.936 126.48,71.936 Z M145.136,74.592 C146.181333,74.592 147.226667,74.32 148.272,73.776 C149.317333,73.232 150.128,72.608 150.704,71.904 L150.704,71.904 L150.704,72.768 C150.704,73.3653333 150.864,73.8133333 151.184,74.112 C151.504,74.4106667 152.016,74.56 152.72,74.56 C153.701333,74.56 154.544,74.4853333 155.248,74.336 C155.952,74.1866667 156.346667,74.1013333 156.432,74.08 L156.432,74.08 L156.464,72.256 L154.672,72.256 L154.672,56.512 L153.904,56.064 L153.84,56.064 L148.048,56.48 L148.048,58.272 L150.192,58.752 L150.192,70.496 C149.104,71.4773333 147.930667,71.968 146.672,71.968 C145.626667,71.968 144.912,71.6586667 144.528,71.04 C144.144,70.4213333 143.952,69.3333333 143.952,67.776 L143.952,67.776 L143.952,56.512 L143.312,56.064 L143.28,56.064 L137.84,56.48 L137.84,58.304 L139.44,58.752 L139.44,67.776 C139.44,70.208 139.877333,71.952 140.752,73.008 C141.626667,74.064 143.088,74.592 145.136,74.592 Z M169.872,74.24 L169.872,72.352 L166.16,72.064 L166.16,61.568 C167.312,60.736 168.666667,60.32 170.224,60.32 C171.141333,60.32 171.92,60.544 172.56,60.992 L172.56,60.992 L172.56,56.192 C172.218667,56.064 171.813333,56 171.344,56 C170.362667,56 169.450667,56.24 168.608,56.72 C167.765333,57.2 167.066667,57.7546667 166.512,58.384 C165.957333,59.0133333 165.605333,59.5413333 165.456,59.968 L165.456,59.968 L165.36,59.968 L165.456,57.376 L165.456,56.672 L164.656,56.032 L164.56,56.032 L159.6,56.704 L159.6,58.912 L161.648,59.488 L161.648,72.096 L159.536,72.352 L159.536,74.24 L169.872,74.24 Z M187.632,74.592 C188.229333,74.592 188.922667,74.5386667 189.712,74.432 C190.501333,74.3253333 191.109333,74.2186667 191.536,74.112 L191.536,74.112 L191.536,72.32 L189.808,72.32 L189.808,62.528 C189.808,60.9493333 189.605333,59.6906667 189.2,58.752 C188.794667,57.8133333 188.128,57.1306667 187.2,56.704 C186.272,56.2773333 184.986667,56.064 183.344,56.064 C182.234667,56.064 181.157333,56.208 180.112,56.496 C179.066667,56.784 178.165333,57.12 177.408,57.504 C176.650667,57.888 176.112,58.2186667 175.792,58.496 L175.792,58.496 L176.784,60.544 C177.68,60.1173333 178.544,59.7706667 179.376,59.504 C180.208,59.2373333 181.146667,59.104 182.192,59.104 C183.109333,59.104 183.808,59.2266667 184.288,59.472 C184.768,59.7173333 185.098667,60.0853333 185.28,60.576 C185.461333,61.0666667 185.552,61.7493333 185.552,62.624 L185.552,62.624 L185.552,63.36 C182.458667,63.3813333 179.936,63.8826667 177.984,64.864 C176.032,65.8453333 175.056,67.3066667 175.056,69.248 C175.056,70.3786667 175.301333,71.344 175.792,72.144 C176.282667,72.944 176.938667,73.552 177.76,73.968 C178.581333,74.384 179.482667,74.592 180.464,74.592 C181.616,74.592 182.650667,74.336 183.568,73.824 C184.485333,73.312 185.232,72.736 185.808,72.096 L185.808,72.096 L185.808,72.96 C185.808,73.6213333 185.930667,74.0586667 186.176,74.272 C186.421333,74.4853333 186.906667,74.592 187.632,74.592 Z M182.512,71.936 C181.68,71.936 181.024,71.6693333 180.544,71.136 C180.064,70.6026667 179.824,69.824 179.824,68.8 C179.824,67.776 180.298667,66.9386667 181.248,66.288 C182.197333,65.6373333 183.632,65.312 185.552,65.312 L185.552,65.312 L185.552,70.56 C185.125333,70.944 184.624,71.2693333 184.048,71.536 C183.472,71.8026667 182.96,71.936 182.512,71.936 Z M210.256,74.24 L210.256,72.32 L207.024,72 L208.24,57.984 L208.72,52.128 L210.352,57.888 L215.088,73.248 L218.48,73.248 L223.12,57.056 L224.304,52.128 L224.912,57.984 L226.32,72 L223.504,72.32 L223.504,74.24 L233.712,74.24 L233.712,72.32 L231.12,71.968 L228.56,52.864 L232.048,52.448 L232.048,50.464 L222.16,50.464 L218.384,64.224 L217.616,67.968 L216.72,64.224 L212.912,50.464 L202.928,50.464 L202.928,52.448 L206.384,52.864 L204.048,72 L201.36,72.32 L201.36,74.24 L210.256,74.24 Z M244.112,74.592 C245.434667,74.592 246.741333,74.3306667 248.032,73.808 C249.322667,73.2853333 250.256,72.7146667 250.832,72.096 L250.832,72.096 L250.032,70.336 C249.52,70.72 248.821333,71.0506667 247.936,71.328 C247.050667,71.6053333 246.192,71.744 245.36,71.744 C243.824,71.744 242.64,71.2053333 241.808,70.128 C240.976,69.0506667 240.517333,67.5413333 240.432,65.6 L240.432,65.6 L250.832,65.6 C251.002667,64.9173333 251.088,63.872 251.088,62.464 C251.045333,60.3946667 250.448,58.8 249.296,57.68 C248.144,56.56 246.501333,56 244.368,56 C242.661333,56 241.157333,56.3733333 239.856,57.12 C238.554667,57.8666667 237.546667,58.944 236.832,60.352 C236.117333,61.76 235.76,63.424 235.76,65.344 C235.76,68.2026667 236.448,70.4586667 237.824,72.112 C239.2,73.7653333 241.296,74.592 244.112,74.592 Z M246.608,63.68 L240.432,63.68 C240.496,61.5893333 240.816,60.128 241.392,59.296 C241.968,58.464 242.778667,58.048 243.824,58.048 C245.722667,58.048 246.672,59.4666667 246.672,62.304 C246.672,62.624 246.650667,63.0826667 246.608,63.68 L246.608,63.68 Z M263.12,74.24 L263.12,72.32 L260.784,72.064 L260.784,48.608 L259.92,48 L259.856,48 L253.936,48.704 L253.936,50.432 L256.304,50.848 L256.304,72.032 L254.064,72.32 L254.064,74.24 L263.12,74.24 Z M274.8,74.24 L274.8,72.32 L272.464,72.064 L272.464,48.608 L271.6,48 L271.536,48 L265.616,48.704 L265.616,50.432 L267.984,50.848 L267.984,72.032 L265.744,72.32 L265.744,74.24 L274.8,74.24 Z M286.224,74.592 C287.824,74.592 289.290667,74.2453333 290.624,73.552 C291.957333,72.8586667 293.024,71.8026667 293.824,70.384 C294.624,68.9653333 295.024,67.2426667 295.024,65.216 C295.024,62.3786667 294.293333,60.1333333 292.832,58.48 C291.370667,56.8266667 289.296,56 286.608,56 C285.029333,56 283.568,56.3573333 282.224,57.072 C280.88,57.7866667 279.808,58.848 279.008,60.256 C278.208,61.664 277.808,63.3706667 277.808,65.376 C277.808,68.2133333 278.544,70.4586667 280.016,72.112 C281.488,73.7653333 283.557333,74.592 286.224,74.592 Z M286.48,72.512 C285.178667,72.512 284.224,71.8773333 283.616,70.608 C283.008,69.3386667 282.704,67.488 282.704,65.056 C282.704,60.4053333 283.941333,58.08 286.416,58.08 C287.717333,58.08 288.656,58.7146667 289.232,59.984 C289.808,61.2533333 290.096,63.104 290.096,65.536 C290.096,70.1866667 288.890667,72.512 286.48,72.512 Z M309.072,74.24 L309.072,72.352 L305.36,72.064 L305.36,61.568 C306.512,60.736 307.866667,60.32 309.424,60.32 C310.341333,60.32 311.12,60.544 311.76,60.992 L311.76,60.992 L311.76,56.192 C311.418667,56.064 311.013333,56 310.544,56 C309.562667,56 308.650667,56.24 307.808,56.72 C306.965333,57.2 306.266667,57.7546667 305.712,58.384 C305.157333,59.0133333 304.805333,59.5413333 304.656,59.968 L304.656,59.968 L304.56,59.968 L304.656,57.376 L304.656,56.672 L303.856,56.032 L303.76,56.032 L298.8,56.704 L298.8,58.912 L300.848,59.488 L300.848,72.096 L298.736,72.352 L298.736,74.24 L309.072,74.24 Z M333.872,74.496 C336.602667,74.496 338.773333,73.696 340.384,72.096 C341.994667,70.496 342.8,68.032 342.8,64.704 L342.8,64.704 L342.8,52.864 L344.976,52.448 L344.976,50.464 L336.976,50.464 L336.976,52.448 L339.728,52.896 L339.728,64.96 C339.728,67.328 339.301333,69.168 338.448,70.48 C337.594667,71.792 336.282667,72.448 334.512,72.448 C330.906667,72.448 329.104,69.9093333 329.104,64.832 L329.104,64.832 L329.104,52.896 L331.824,52.448 L331.824,50.464 L322.16,50.464 L322.16,52.448 L324.272,52.864 L324.272,64.416 C324.272,67.8933333 325.061333,70.4426667 326.64,72.064 C328.218667,73.6853333 330.629333,74.496 333.872,74.496 Z M357.84,74.24 L357.84,72.352 L355.024,72 L355.024,52.864 L357.84,52.448 L357.84,50.464 L347.6,50.464 L347.6,52.448 L350.32,52.864 L350.32,72 L347.6,72.32 L347.6,74.24 L357.84,74.24 Z" id="LauraMellorUI"></path>
        </g>
    </g>
</svg>